<?xml version="1.0" encoding="utf-8"?>
<!-- Generator: Adobe Illustrator 26.0.1, SVG Export Plug-In . SVG Version: 6.00 Build 0)  -->
<svg version="1.1" id="Layer_1" xmlns="http://www.w3.org/2000/svg" xmlns:xlink="http://www.w3.org/1999/xlink" x="0px" y="0px"
	 viewBox="0 0 700 700" style="enable-background:new 0 0 700 700;" xml:space="preserve">
<style type="text/css">
	.st0{fill-rule:evenodd;clip-rule:evenodd;}
</style>
<path class="st0" d="M380.8,280c0-8.2-3.2-16-9-21.8c-5.8-5.8-13.6-9-21.8-9c-8.2,0-16,3.2-21.8,9c-5.8,5.8-9,13.6-9,21.8
	c0,8.2,3.2,16,9,21.8c5.8,5.8,13.6,9,21.8,9c8.2,0,16-3.3,21.8-9S380.8,288.2,380.8,280L380.8,280z M324.8,280
	c0-6.7,2.7-13.1,7.4-17.8c4.7-4.7,11.2-7.4,17.8-7.4c6.7,0,13.1,2.7,17.8,7.4c4.7,4.7,7.4,11.2,7.4,17.8c0,6.7-2.7,13.1-7.4,17.8
	s-11.2,7.4-17.8,7.4c-6.7,0-13.1-2.7-17.8-7.4C327.4,293.1,324.8,286.7,324.8,280L324.8,280z"/>
<path class="st0" d="M529.9,280c0-47.7-18.9-93.5-52.7-127.2c-33.7-33.7-79.5-52.7-127.2-52.7s-93.5,18.9-127.2,52.7
	c-33.7,33.7-52.7,79.5-52.7,127.2s18.9,93.5,52.7,127.2c33.7,33.7,79.5,52.7,127.2,52.7c31.6,0,62.6-8.3,89.9-24.1
	c27.3-15.8,50.1-38.5,65.8-65.8C521.6,342.6,529.9,311.6,529.9,280L529.9,280z M430.5,232.1c-0.4,0.3-1,0.4-1.5,0.4
	c-1,0-1.8-0.5-2.4-1.3c-8.4-13.2-20.1-24-33.9-31.4c-0.7-0.3-1.2-0.9-1.4-1.7c-0.2-0.7-0.1-1.5,0.2-2.2c0.4-0.7,1-1.2,1.7-1.4
	c0.7-0.2,1.5-0.1,2.1,0.2c14.7,7.8,27,19.3,36,33.3C432.2,229.5,431.8,231.3,430.5,232.1L430.5,232.1z M350,126.4
	c44.5,0,86.7,19.2,115.9,52.8c0.7,0.8,0.9,2,0.4,3c-0.5,1-1.4,1.6-2.5,1.6c-0.8,0-1.6-0.3-2.1-1C433.6,150.5,392.8,132,350,132
	c-1.5,0-2.8-1.3-2.8-2.8S348.4,126.4,350,126.4L350,126.4z M350,156.2c32.8,0,64.3,13.1,87.5,36.3s36.3,54.7,36.3,87.5
	c0,1.5-1.3,2.8-2.8,2.8s-2.8-1.3-2.8-2.8c0-31.3-12.5-61.4-34.7-83.5c-22.2-22.1-52.2-34.6-83.5-34.7c-1.5,0-2.8-1.3-2.8-2.8
	C347.2,157.5,348.5,156.2,350,156.2L350,156.2z M278.6,280c0-18.9,7.5-37.1,20.9-50.5s31.6-20.9,50.5-20.9s37.1,7.5,50.5,20.9
	s20.9,31.6,20.9,50.5s-7.5,37.1-20.9,50.5s-31.6,20.9-50.5,20.9s-37.1-7.5-50.5-20.9S278.6,298.9,278.6,280z"/>
</svg>
