<?xml version="1.0" encoding="UTF-8"?>
<svg width="752pt" height="752pt" version="1.1" viewBox="0 0 752 752" xmlns="http://www.w3.org/2000/svg">
 <g>
  <path d="m500.13 245.97-30.832-30.832v30.832z"/>
  <path d="m402.37 360.52c-14.578 0-26.27 11.699-26.27 32.387 0 19.797 10.613 32.566 25.73 32.566 13.496 0 26.27-9.7188 26.27-32.387-0.003906-16.727-8.457-32.566-25.73-32.566z"/>
  <path d="m450.36 264.91v-72.645h-221.36v367.46l294 0.003906v-294.82zm-106.66 60.348h-16.012v99.145h16.012v14.031h-49.844v-14.031h15.836v-99.145h-15.836v-13.855h49.84v13.855zm114.45 113.18h-18.176c-8.0977 0-11.336-3.9609-11.336-9.8984v-1.2578c0-3.0586 0.53906-4.8594 0.53906-4.8594h-0.35938s-7.3789 18.172-30.77 18.172c-24.469 0-39.762-19.438-39.762-47.684 0-28.969 16.91-47.68 41.383-47.68 20.691 0 28.074 15.293 28.074 15.293l0.35156-0.003907s-0.53516-2.8789-0.53516-6.8398v-28.789h-15.113v-13.496h32.566v109.58c0 2.6992 1.4414 3.9609 3.9609 3.9609h9.1797v13.5z"/>
 </g>
</svg>
