<?xml version="1.0" encoding="UTF-8"?>
<svg width="752pt" height="752pt" version="1.1" viewBox="0 0 752 752" xmlns="http://www.w3.org/2000/svg">
 <g>
  <path d="m500.13 245.97-30.832-30.832v30.832z"/>
  <path d="m355.84 329.22c-3.9609-2.1602-9.3594-3.0586-15.477-3.0586l-23.75-0.003906v49.84h23.57c5.7578 0 10.258-0.89844 14.211-2.5195 8.0977-3.5977 12.777-11.699 12.777-22.676 0.003906-10.25-4.1367-17.809-11.332-21.582z"/>
  <path d="m450.36 264.91v-72.645h-221.36v367.46l294 0.003906v-294.82zm-88.945 123.14c-5.9375 2.1602-12.051 2.6992-19.07 2.6992h-25.73v33.648h16.012v14.031h-49.84v-14.031h15.836v-99.141h-15.836v-13.855h59.199c7.7383 0 15.477 0.53906 21.773 3.418 13.133 5.5781 21.59 19.07 21.59 35.988 0.003906 17.809-9.3555 32.207-23.934 37.242zm71.273 52.543c-16.551 0-35.621-7.3789-35.621-21.773v-9.7148h15.293v5.9336c0 7.7383 10.793 11.336 20.871 11.336 10.258 0 18.352-4.1406 18.352-11.699 0-9.1797-10.078-12.059-22.676-16.555-13.496-5.0391-28.43-11.152-28.43-27.711 0-17.992 17.812-25.191 33.648-25.191 12.777 0 31.488 5.0391 31.488 18.352v10.977h-15.293v-5.9375c0-5.5781-7.1992-9.3594-16.012-9.3594-8.6367 0-16.191 3.5977-16.191 10.977 0 8.6367 10.074 12.234 21.051 16.012 14.031 4.6797 30.047 10.617 30.047 27.527 0 17.289-15.832 26.828-36.527 26.828z"/>
 </g>
</svg>
