<?xml version="1.0" encoding="UTF-8"?>
<svg width="752pt" height="752pt" version="1.1" viewBox="0 0 752 752" xmlns="http://www.w3.org/2000/svg">
 <defs>
  <clipPath id="a">
   <path d="m228 139.21h356v473.58h-356z"/>
  </clipPath>
 </defs>
 <path d="m509.2 361.2h-325.59c-8.1406 0-14.801 6.6602-14.801 14.801v147.99c0 8.1406 6.6602 14.801 14.801 14.801h325.59c8.1562 0 14.801-6.6602 14.801-14.801v-148c0-8.1367-6.6445-14.797-14.801-14.797zm-253.34 125.85c0 4.1445-3.1953 7.3398-7.3398 7.3398-4.2617 0-8.0508-3.1953-8.0508-7.3398v-25.898h-38.566v25.898c0 4.1445-3.0781 7.3398-7.2227 7.3398-5.3281 0-8.3906-3.1953-8.3906-7.3398v-67.203c0-4.2617 3.0781-7.3398 8.3906-7.3398 4.1445 0 7.2227 3.0781 7.2227 7.3398v25.797h38.566v-25.797c0-4.2617 3.7891-7.3398 8.0508-7.3398 4.1445 0 7.3398 3.0781 7.3398 7.3398zm76.66-59.742h-19.637v59.746c0 10.285-15.629 10.539-15.629 0v-59.746h-20.691c-10.301 0-10.301-15.141 0-15.141h55.957c10.539-0.015625 10.539 15.141 0 15.141zm102.5 58.914c0 5.2227-3.3281 8.168-7.1055 8.168-4.2461 0-7.5781-2.9453-7.5781-8.168l0.003906-43.777-19.652 24.848c-4.2461 5.2227-9.5586 5.2227-13.48 0l-17.625-24.848v43.777c0 5.2227-4.2617 8.168-8.5078 8.168-3.7891 0-7.1055-2.9453-7.1055-8.168v-66.613c0-6.1562 5.2227-8.1836 7.1055-8.1836 3.418 0 5.4297 2.0273 7.4453 4.2773l26.047 35.133 26.965-36.449c3.9062-4.8398 13.496-2.9609 13.496 5.2227zm67.207 8.1719h-39.16c-4.1289 0-7.457-2.9453-7.457-7.2227v-67.543c0-3.9062 3.3281-7.2227 7.457-7.2227 3.7891 0 7 3.3281 7 7.2227v59.285h32.176c11.57-0.015625 11.836 15.48-0.015626 15.48z"/>
 <g clip-path="url(#a)">
  <path d="m568.39 251.48-97.469-97.469c-8.5547-8.5859-23.59-14.801-35.727-14.801h-162.79c-24.48 0-44.398 19.922-44.398 44.398v147.99c0 8.1836 6.6172 14.801 14.801 14.801s14.801-6.6172 14.801-14.801l-0.003906-147.99c0-8.1562 6.6289-14.801 14.801-14.801h133.2c16.352 0 29.598 13.262 29.598 29.598v55.496c0 18.324 15.008 33.301 33.297 33.301h55.5c16.352 0 29.598 13.262 29.598 29.598v251.59c0 8.1562-6.6172 14.801-14.801 14.801h-266.39c-8.168 0-14.801-6.6445-14.801-14.801 0-8.1836-6.6172-14.801-14.801-14.801-8.1836 0-14.801 6.6172-14.801 14.801 0 24.477 19.922 44.398 44.398 44.398h266.39c24.477 0 44.398-19.922 44.398-44.398v-281.19c0-12.117-6.2148-27.156-14.797-35.723z"/>
 </g>
</svg>
