<?xml version="1.0" encoding="UTF-8"?>
<svg width="752pt" height="752pt" version="1.1" viewBox="0 0 752 752" xmlns="http://www.w3.org/2000/svg">
 <path d="m168.88 158.94c-5.4844 0-9.9336 4.4531-9.9336 9.9336v414.25c0 5.4844 4.4531 9.9375 9.9336 9.9375h414.25c5.4844 0 9.9375-4.4531 9.9375-9.9375v-414.25c0-5.4844-4.4531-9.9375-9.9375-9.9375h-414.25zm75.426 93.93h88.223c15.656 0 28.574 1.7852 38.75 5.3672 10.172 3.5742 18.223 8.5 24.152 14.762 5.9258 6.2617 10.062 13.473 12.414 21.633 2.3477 8.1641 3.5234 16.723 3.5234 25.668 0 13.422-2.7461 24.484-8.2266 33.207-5.4727 8.7227-12.578 15.594-21.301 20.625-8.7188 5.0352-18.613 8.5625-29.68 10.574-11.074 2.0117-22.203 3.0156-33.383 3.0156h-51.66v106.68h-22.812zm22.812 19.449v95.949h52.336c10.73 0 20.352-0.67188 28.848-2.0156 8.5-1.3398 15.707-3.8555 21.637-7.543 5.9258-3.6875 10.508-8.7227 13.754-15.098 3.2422-6.375 4.8633-14.703 4.8633-24.992 0-15.207-4.9727-26.723-14.926-34.547-9.9531-7.8281-25.777-11.75-47.469-11.75h-59.043zm258.64 43.613v21.805c-11.402-0.22656-20.797 1.5742-28.172 5.375-7.3828 3.7969-13.262 8.9414-17.621 15.426-4.3633 6.4883-7.3789 14.145-9.0547 22.977-1.6758 8.832-2.5156 18.059-2.5156 27.676v85.207h-20.129v-173.76h20.129v32.539h0.67188c5.5938-13.867 12.805-23.543 21.637-29.016 8.832-5.4805 20.52-8.2266 35.055-8.2266z"/>
</svg>
