<?xml version="1.0" encoding="UTF-8"?>
<svg width="752pt" height="752pt" version="1.1" viewBox="0 0 752 752" xmlns="http://www.w3.org/2000/svg">
 <path d="m213.21 213.21v325.59c0 11.457 7.4609 23.68 23.918 33.211 26.062 15.066 78.422 25.988 138.88 25.988 60.457 0 112.82-10.922 138.88-25.988 16.457-9.5312 23.914-21.754 23.914-33.211v-325.85c-0.11719-11.379-7.5742-23.488-23.914-32.941-26.062-15.066-78.422-25.988-138.88-25.988-60.453 0-112.81 10.922-138.88 25.988-16.457 9.5273-23.918 21.754-23.918 33.207zm295.99 147.23c-27.539 13.48-76.867 22.969-133.2 22.969-56.34 0-105.67-9.4883-133.19-22.969v67.352c0.011718 1.2734 1.4492 1.9688 2.7227 3.1055 3.9062 3.4961 9.6641 6.5742 16.797 9.4883 25.676 10.465 67.07 17.02 113.67 17.02 46.695 0 88.148-6.5859 113.82-17.078 7.1016-2.918 12.844-6.0078 16.723-9.4883 1.2266-1.125 2.6484-1.7891 2.6484-3.0312zm-133.2-176.82c46.695 0 88.148 6.5859 113.82 17.078 7.1016 2.9141 12.844 6.0078 16.723 9.4883 1.2266 1.125 2.6484 1.7891 2.6484 3.0312 0 1.2422-1.4219 1.9102-2.6484 3.0352-3.8789 3.4766-9.6211 6.5703-16.723 9.4844-25.676 10.496-67.129 17.082-113.82 17.082-46.691 0-88.145-6.5859-113.82-17.082-7.1055-2.9141-12.848-6.0078-16.723-9.4844-1.2305-1.125-2.6484-1.793-2.6484-3.0352 0-1.2422 1.418-1.9062 2.6484-3.0312 3.875-3.4805 9.6172-6.5742 16.723-9.4883 25.676-10.492 67.129-17.078 113.82-17.078z" fill-rule="evenodd"/>
</svg>
